<svg height="211.947812" viewBox="0 0 135.56112 60.91767" width="471.81426" xmlns="http://www.w3.org/2000/svg"><g fill="#231f20" transform="scale(.6736291)"><path d="m42.506899 7.8937475c1.366661.414867 2.591152 1.157111 3.662186 2.023534-3.262136-1.824922-5.138915-2.192515-5.259917-2.212623l-.03528-.0032c-.511529-.07761-.934863-.169334-1.3208-.2667.631471-.130528 1.217435-.327025 1.750835-.570442.0013.01199.0013.02222.0013.03104.248709.680861.90805.919339 1.201563.998362zm-15.609395 1.172986s.139594-.40499.175861-.503415c.03926-.09737.424955-1.153935 1.383805-1.253419 0 0 .555096-.03387 1.41016-.03387 0 0-.417972 1.344789-2.064456 1.634773 0 0-.645583.146753-.90537.155927zm165.387196 43.4858605c-.33796 1.17404-2.0126 2.74108-4.04848 3.64278-2.13748.95638-6.59589 1.2072-9.17152.78705-.007 0-4.99498-.50659-9.36483-5.0726-1.3776-1.44074-3.07376-3.07516-4.63939-4.68947-.68826-.72214-2.38336-2.41653-5.20065-2.79259-2.93546-.39511-10.10179-.59055-12.79736-1.48449-1.80129-.60043-3.97404-1.82104-6.86365-6.10164-1.3917-2.04999-2.37984-2.61267-4.27249-3.81353 0 0 1.45098 1.15323 2.27365 2.61056 1.1864 2.11455 1.78541 3.65407 2.431 4.78049.64629 1.13135 1.37759 2.1336 2.47826 3.01977 1.37054 1.10102 2.22638 1.30705 3.71052 1.55328 1.42205.23707 6.21876.19368 10.33427.13265 4.04918-.0646 5.85576 1.24319 7.18608 2.36432 1.2319 1.0354 3.34222 4.00085 4.63938 5.3033 1.54729 1.53847 2.679 3.11292 5.73829 4.65491 1.06115.53939 2.79964 1.86055 2.71074 3.13584-1.37442 1.37654-3.08187 1.73849-7.17656.64488.28928.28328 2.43276 2.53435 6.10059 1.46967-1.10667.92392-2.19075 1.31727-3.32246 1.25659-3.83752-.21272-7.59778-4.93995-9.70492-6.6869-1.60196-1.32468-1.78717-1.6577-4.50744-3.54083-4.13209-2.86068-13.40273-2.05458-13.40273-2.05458l-6.80368.35349c-13.25033 1.00118-18.81505-10.73574-20.28154-13.18507-.51153-.84985-.97049-1.536-1.41076-2.09233-.67592-.9017-4.29648-5.59858-7.95726-7.14093 0 0 3.59763 3.09633 3.38491 5.14421 0 0-1.49155-.6918-5.54602-.11324-17.455092 2.48814-23.395872-1.88101-23.395872-1.88101.81033-3.49779-1.6316-7.08837-1.6316-7.08837 1.3462.42757 9.92752 3.32705 18.0781 1.67217 0 0-13.26303.0709-22.56261-7.347302 0 0 5.78732 7.251342 4.41396 11.999382 0 0-.94968 5.05954-11.03807 3.01942-1.07667-.21237-2.34421-.57255-17.444857-4.76214-3.549298-1.06292-4.7752.63253-5.415491 1.65064-.02717 1.49296-1.786115 3.23498-2.672998 3.78072-4.672542-.84172-2.811286-5.17736-2.811286-5.17736-2.941108 4.20617.139348 6.06425 1.114073 6.19689-.582437.28293-1.134887.48684-1.602671.66005 0 0-3.818818-2.27401-1.68557-6.00075 2.977091-5.19501 6.00851-6.86118 11.56617-7.369175 2.43099-.232481 4.45735-.40499 6.0004-.193323 4.03154.556688 6.55814 2.833158 12.59593 3.419478-12.81571-3.774372-12.84358-11.196463-12.88733-11.336515-.002-.0019-.005-.01553-.005-.01553-.71014 2.44969-.31926 4.512733.30586 6.255102-.17745-.06244-2.97921-1.904646-4.04742-2.553759-4.601923-2.810228-8.233769-3.300588-8.233769-3.300588-1.526116-.193675-2.236964-2.047875-2.236964-2.047875-.05257-.0949-.107244-.181681-.160161-.270581-2.123016-3.624792-4.220633-3.696758-4.220633-3.696758.750004 1.020233 1.033992 2.316691 1.140529 3.12561.06103.465666.120298 1.316566.118181 1.572331-.0381 3.870325-4.521551 5.090935-4.521551 5.090935-3.125542 3.965575-2.962524 4.047773-3.657037 4.15008-.698254.09772-2.222076-.678746-2.222076-.678746-.118534-.0635-.149789-.236009-.130247-.34925.03817-.239888.233574-.391584.233574-.391584.586354-.464253 1.064543-.926745 1.064543-.926745 3.302212-3.377496 3.69824-5.02638 3.290748-7.216071-.834814-4.392084-3.97383-3.880909-3.97383-3.880909-1.528234.145699-2.143268 1.406174-2.143268 1.406174-.524087.809273-1.635336 3.285773-1.635336 3.285773-.682096 1.476726-1.377738 1.810101-1.738524 1.876776-.157656.02787-.448133.02257-.543489.01977-1.061509-.03775-1.86877-1.018117-1.86877-1.018117-.04918-.0508-.09603-.103013-.132291-.145346-.971515-1.04281-.267335-2.404533-.267335-2.404533 1.308593-3.049411 3.850675-3.492146 4.19421-3.536244.356199-.0448 1.525339-.214842 1.525339-.214842 3.228483-.5432755 4.753012-3.9052485 4.753012-3.9052485-2.17678-.02681-3.23977.116769-3.23977.116769-2.141469.37465-2.870589 2.897716-2.870589 2.893837-1.812678.414512-1.766252-1.143355-1.447905-1.619604.284127-.439561 1.349763-2.308577 8.312996-3.920066 0 0 3.43408-1.033286 10.773269-.701675 0 0 0 0-.302683.562328-.648406 1.227666-3.222273 3.758494-7.476421 2.820811 0 0 .03669 1.889831 4.651023 2.56681 0 0 4.173008.745066 11.249377 6.4318455 0 0-3.384902-6.7218295-9.128125-8.4620805 0 0-.716844-.154164-.365829-.603603 0 0 3.394075-3.189111 8.110008-3.186642 0 0 14.711534.315737 24.054504 10.0905025 0 0-.40922-1.699684-1.87995-4.1080975 0 0 0 0-.61701-1.003652 0 0 .56021.0635 2.09585.315031 0 0 5.61552.699911 18.80729 5.2549765 0 0 9.882362 3.245908 15.291862 5.392208 8.1287 3.237442 28.49562 11.127312 41.47855 18.206152 2.31916 1.26083 25.80287 13.5068 25.80287 13.5068 6.5031 2.92065 11.0049 1.14512 11.0049 1.14512 1.46368-.55598 4.11868-2.59645 5.28038-1.44216.59831.59655.67804 1.40088.39088 2.18617zm-160.615311-39.965493c-.678955-.475544-1.438664-.56797-2.126051-.458258.303318-.224719.785918-.254.785918-.254.31736-.03775 1.822733-.09595 2.520421 2.260954-.298344-.675923-.704885-1.215673-1.180288-1.548696zm-11.117332.661813c1.484841-2.189692 3.420991-3.8385745 3.442334-3.8555075.02593-.02328.05486-.04339.07236-.06879.02783-.02893.05098-.05927.0816-.08784.115887.136525.268851.275519.471416.390171-1.128366.4801265-4.06771 3.6219665-4.06771 3.6219665zm20.991759-12.0106725c25.296632-1.49789402 62.034204 14.4917575 62.391924 14.6543895l.0247.0063.0208.0056c3.07798 1.22414 6.00286 2.420408 8.7436 3.564115-.647-.254707-3.98216-1.580446-3.98745-1.580446-5.37104-2.133246-15.244242-5.380919-15.329252-5.408435-12.94589-4.4672245-18.60515-5.2549775-19.00838-5.3064825-1.53282-.249767-2.11702-.316442-2.1403-.317148l-2.33292-.268816s1.27953 2.072215 1.28764 2.085622c-9.13835-6.466056-20.078345-6.791317-20.615627-6.80437h-.024c-2.203098 0-4.128913.626886-5.621163 1.345142.170746-.31362.745421-1.388533.745421-1.388533l-1.811163-.07902c-3.2385-.146402-5.742162-.03316-7.553676.145345 2.893483-.534811 5.148791-.653345 5.209823-.653345zm152.152704 48.4617825c-.95215-2.11878-3.57505-1.43016-3.57505-1.43016-1.24037.25824-2.6543 1.67887-4.75757 2.30117-4.51343 1.33738-8.11812-.21766-8.11812-.21766-6.94972-3.00355-29.29325-15.79527-40.65446-21.38327 0 0-13.03302-6.535211-32.1885-14.119228 0 0-37.056842-16.2828095-62.928502-14.74893152 0 0-13.411941.596547-17.606962 6.68937202 0 0-.716315.813858-.309104 1.694743 0 0 .07881.252942-.0889.420865 0 0-2.254885 2.0210645-3.402365 3.8170565-.403084.652637-.851359 1.74907-.02385 2.517775 0 0 .372498.289276.528638.542218.327554.535165.631401 1.331032 1.03766 1.806223.583883.698852 1.768969 1.907469 3.437079 1.617133.615315-.107246.747606-.339021.747606-.339021.834813.829734 2.190679.803982 2.190679.803982-.170464-.531636-.751311-1.572332-.834708-2.20204-.08929-.692854.112324-1.355725.112324-1.355725.235902-.786694.703757-1.776942 1.219835-2.276475.450638-.448379 1.607891-.961319 2.540142-.3175.743056.527405 1.629797 2.243315.891329 4.693356-.03323.185561-.84681 1.923344-1.719263 2.186869 0 0-.08156.02646-.248991.02646-.586634 0-1.680104-.613833-1.680104-.613833s-.0291.155575.127034.790223c.09716.364067.225991.759177.330343 1.06821 0 0-.212513.380296-.350308.601488-.210857.378177-.388197 1.09996.06311 1.42875 0 0 1.935022 1.31656 3.813034 1.43157 1.293988.078 1.783715-.79481 1.783715-.79481.950841-1.311625 1.670225-2.430989 2.673525-3.344683 2.744965-2.5146 6.599415-3.189465 6.599415-3.189465.255764-.03316 4.46546-1.204028 11.620857 4.519084-2.043647.164041-4.476049.651229-6.333776.981429-5.300488.945092-8.702323 5.946775-9.692216 7.981245-2.576338 5.30895 2.690283 7.13916 2.690283 7.13916.04939-.0483 5.020733-.43956 7.421737-5.72523 0 0 .878771-2.34103 3.212041-1.58221 1.525411.4946 15.010341 5.20806 18.046701 6.0064 0 0 9.0297 2.35055 12.43048-1.80164 5.43525 1.78329 10.53571 2.64689 23.899992.92216 2.31916-.30198 4.14337-.23283 4.14337-.23283 3.12209.23424 5.97077 2.33397 6.83472 3.71228 3.51296 5.62469 7.97172 16.79681 23.44773 15.43685l6.99876-.63465c4.27143-.25365 7.74911-.42122 11.27653 1.43651 1.536.8061 2.38972 1.10173 4.99428 3.58846 3.56552 3.39195 6.84812 7.06296 11.20951 5.06024 1.54835-.71261 3.2886-3.47909 3.2886-3.47909-.16828-1.26295-.7306-2.47756-2.11773-3.51332 3.96382.94192 12.90567 1.55187 16.36713-4.49791.89394-1.4097.99095-2.66489.65229-3.4216zm-155.736927-44.7597325c.171802.006.364067.01023.593019.01447.928513.01517 1.975204-.367242 2.671587-.691797.496359-.232481.817738-.434623.775759-.434623-.644173-.0067-1.675696-.01623-2.06093-.01623-1.674635 0-2.554816.948973-2.562225 1.036814-.0063.05433.224015.07691.58279.09137"/><path d="m129.75942 73.912224v7.96854c0 2.06305-.22648 3.69324-1.26647 5.05601-1.69122 2.22004-4.79284 3.49462-13.44471 3.49462l-.09.0008c-8.60496 0-11.7221-1.27741-13.41191-3.4918-1.03998-1.36419-1.2647-2.99649-1.2647-5.05813v-7.96783h5.95383v7.741c0 2.07751.26141 3.29847 1.02305 4.36986 1.28764 1.81433 3.51085 2.46944 7.50852 2.46944h.50554c4.18147 0 6.22088-.65511 7.50852-2.47015.76164-1.07421 1.02411-2.34738 1.02411-4.36351v-7.74876zm59.21481 2.01683c2.23132 0 3.22051.20743 3.89961.71579.64488.48295.87524 1.22096.87524 2.36819v.30057c0 1.0354-.24695 1.87607-1.00683 2.40312-.74718.51682-1.79317.63112-3.6957.63112h-11.80183v-6.41879zm2.89595 8.32661c2.23767-.0744 4.13421-.41204 5.59541-1.19944 1.51624-.81668 2.23873-2.35797 2.23873-3.9564 0-2.13678-.95497-3.50556-2.69452-4.27038-1.54622-.68156-3.45616-.9151-7.26052-.9151h-18.45768v15.99071h5.95312v-5.54249h7.82073l8.9214 5.54249h7.25311zm-104.082842 3.5112v-5.20594h5.9249v7.3413h-17.22861c-3.23038 0-5.77568-.37535-7.6969-1.14935-3.20076-1.29116-4.66443-3.65019-4.66443-6.87493 0-3.04482 1.59385-5.15726 3.62232-6.29355 2.15724-1.20897 4.58717-1.67217 8.63459-1.67217h16.7266v2.13536h-14.8724c-3.18735 0-4.92372.48155-6.24699 1.55787-1.17616.95497-1.80234 2.38584-1.80234 4.30142-.001 1.98014.65828 3.4424 1.91523 4.4009 1.32715 1.0093 3.11468 1.45803 6.18314 1.45803zm-62.254624-13.85464v7.79815c0 2.52272-.578802 4.05236-1.777824 5.27932-2.092113 2.14031-6.105242 2.91324-11.7832 2.91324h-11.97169v-2.1463h11.021554c3.381692 0 5.666916-.55951 7.044795-1.92158 1.043587-1.03011 1.512817-2.46662 1.512817-4.60199v-7.32084zm130.864606 12.5857h-17.63924l-2.92347 3.40501h-3.45123l13.87088-15.99071h5.86845l13.88322 15.99071h-6.67526zm-15.86583-2.06657h14.08607l-7.05379-8.18939zm-88.267816 2.06657h-17.639101l-2.923786 3.40501h-3.451013l13.872596-15.99071h5.865638l13.88463 15.99071h-6.67491zm-15.864771-2.06657h14.085007l-7.053086-8.18939z"/></g></svg>