<svg xmlns="http://www.w3.org/2000/svg" height="800" width="1200" viewBox="-19.843755 -14.5023 171.97921 87.0138"><path d="M66.1456 0A29.0046 29.0046 0 0041.7 13.4019H0l4.1513 4.1513H39.534a29.0046 29.0046 0 00-1.5924 4.8365H8.9878l4.1007 4.1006h24.1817a29.0046 29.0046 0 00-.129 2.5145 29.0046 29.0046 0 00.1161 2.3225h-19.332l4.1008 4.1007H37.888a29.0046 29.0046 0 001.5298 4.8364H26.8625l4.1514 4.1513H41.615a29.0046 29.0046 0 0024.5305 13.5935 29.0046 29.0046 0 0024.531-13.5935h10.6012l4.1513-4.1513H92.874a29.0046 29.0046 0 001.5298-4.8364h15.8619l4.1007-4.1007h-19.332a29.0046 29.0046 0 00.1161-2.3225 29.0046 29.0046 0 00-.1285-2.5145h24.1813l4.1007-4.1006H94.3502a29.0046 29.0046 0 00-1.5924-4.8365h35.3825l4.1514-4.1513H90.5916A29.0046 29.0046 0 0066.1456 0zm0 3.9316a25.0733 25.0733 0 0125.0733 25.0732 25.0733 25.0733 0 01-25.0733 25.0733 25.0733 25.0733 0 01-25.0733-25.0733A25.0733 25.0733 0 0166.1456 3.9316zM46.1997 22.5062V35.503h2.7104V25.2725l2.859 10.2305h2.8092l2.8686-10.2305V35.503h2.7108V22.5062H55.781l-2.5924 8.8655-2.622-8.8655zm16.7869 0V35.503h2.9177V22.5062zm5.717 0V35.503h2.7108v-8.4752l5.826 8.4752h2.9277V22.5062h-2.7109v8.6792l-5.9143-8.6792zm14.4706 0V35.503h2.9177V22.5062z" fill="#120a08" paint-order="markers stroke fill"/></svg>